<!DOCTYPE svg PUBLIC "-//W3C//DTD SVG 1.1//EN" "http://www.w3.org/Graphics/SVG/1.1/DTD/svg11.dtd">
<!-- Uploaded to: SVG Repo, www.svgrepo.com, Transformed by: SVG Repo Mixer Tools -->
<svg fill="#ffffff" height="800px" width="800px" version="1.1" id="Capa_1" xmlns="http://www.w3.org/2000/svg" xmlns:xlink="http://www.w3.org/1999/xlink" viewBox="0 0 489.777 489.777" xml:space="preserve" stroke="#ffffff">
<g id="SVGRepo_bgCarrier" stroke-width="0"/>
<g id="SVGRepo_tracerCarrier" stroke-linecap="round" stroke-linejoin="round"/>
<g id="SVGRepo_iconCarrier"> <g> <g> <g> <path d="M115.26,125.275c59-37.2,72.3-83.2,72.3-83.2c-32.6-39.5-90.5-50.4-136-23.2c-45.8,27.2-63.3,83.1-43.5,130.9 C8.06,149.775,60.26,159.375,115.26,125.275z"/> <path d="M200.06,61.575c-14.8,31.9-40.8,59.8-75,80.4c-31.1,18.7-68.4,30.4-105.7,28.4c31.5,44.7,92.9,58.3,140.7,29.5 S224.86,110.975,200.06,61.575z"/> <path d="M482.96,356.875l-155.1-257.6c-2.7-4.7-8.9-6.2-13.2-3.5c-4.7,2.7-6.2,8.9-3.5,13.2l155,257.8c8,13.2,3.7,30.4-9.6,38.4 l-96.4,57.8c-9.9,5.9-22.5,4-30.2-4.6l-9.1-10.1c22.1-18.7,28-51.3,12.8-76.6l-120-199.3c-10.1,17.9-24.9,33.4-43.5,44.3 c-18.3,10.9-38.5,16.7-59.5,17.9l119.3,199c14.8,24.5,44.3,34.6,70.3,26l14.6,13.6c15.5,14.4,38.6,16.9,56.8,6l94.9-56.7 C489.16,408.875,496.56,379.475,482.96,356.875z M291.76,418.275c-8.2,5.1-18.3,2.3-22.9-5.4l-28-47c-4.7-7.8-1.9-17.9,5.4-22.5 c7.8-4.7,17.9-1.9,22.5,5.4l28.4,47C301.86,403.575,299.06,413.675,291.76,418.275z"/> </g> </g> </g> </g>
</svg>