<svg xmlns="http://www.w3.org/2000/svg" version="1.1" xmlns:xlink="http://www.w3.org/1999/xlink" xmlns:svgjs="http://svgjs.dev/svgjs" width="1280" height="720" preserveAspectRatio="none" viewBox="0 0 1280 720"><g mask="url(&quot;#SvgjsMask1076&quot;)" fill="none"><rect width="1280" height="720" x="0" y="0" fill="rgba(55, 31, 118, 1)"></rect><path d="M0,441.82C80.496,430.588,130.633,353.601,199.135,309.86C267.902,265.95,355.679,250.404,403.409,184.231C455.37,112.192,481.98,20.411,471.534,-67.796C460.978,-156.931,413.598,-240.739,346.075,-299.876C282.619,-355.451,191.381,-353.099,112.29,-382.423C25.618,-414.557,-51.907,-504.819,-141.087,-480.497C-230.052,-456.233,-258.911,-345.13,-308.801,-267.578C-351.602,-201.045,-390.618,-135.392,-412.081,-59.248C-436.287,26.627,-474.401,118.664,-440.991,201.394C-407.335,284.735,-317.281,327.884,-238.367,370.907C-164.079,411.408,-83.799,453.513,0,441.82" fill="#24144d"></path><path d="M1280 1125.421C1356.494 1116.13 1431.295 1097.914 1495.229 1054.902 1558.28 1012.4839999999999 1608.253 953.443 1638.9569999999999 883.9300000000001 1669.415 814.974 1669.022 739.619 1667.781 664.246 1666.374 578.769 1679.695 486.078 1631.246 415.643 1581.367 343.129 1493.733 303.36 1407.484 285.829 1325.051 269.074 1239.474 286.099 1162.6680000000001 320.403 1092.114 351.915 1051.991 421.494 992.7239999999999 471.074 919.121 532.646 806.505 557.356 772.258 646.998 737.289 738.531 769.514 845.718 816.81 931.532 862.429 1014.304 941.1469999999999 1075.116 1028.328 1111.6100000000001 1107.431 1144.722 1194.872 1135.76 1280 1125.421" fill="#4a2a9f"></path></g><defs><mask id="SvgjsMask1076"><rect width="1280" height="720" fill="#ffffff"></rect></mask></defs></svg>